<?xml version="1.0" encoding="utf-8"?>
<!-- Generator: Adobe Illustrator 25.2.3, SVG Export Plug-In . SVG Version: 6.00 Build 0)  -->
<svg version="1.1" id="Layer_1" xmlns="http://www.w3.org/2000/svg" xmlns:xlink="http://www.w3.org/1999/xlink" x="0px" y="0px"
	 viewBox="0 0 353.1 91.8" style="enable-background:new 0 0 353.1 91.8;" xml:space="preserve">
<style type="text/css">
	.st0{fill:#0D1732;}
	.st1{stroke:#FFFFFF;stroke-width:5;stroke-miterlimit:10;}
	.st2{fill:url(#SVGID_1_);}
	.st3{fill:url(#SVGID_2_);}
	.st4{fill:url(#SVGID_3_);}
	.st5{fill:url(#SVGID_4_);}
	.st6{fill:#F15822;}
	.st7{fill:#90BA43;}
	.st8{fill:#FFFFFF;}
	.st9{fill:url(#SVGID_11_);}
	.st10{fill:url(#SVGID_12_);}
	.st11{fill:#1A1446;}
	.st12{fill:#EC7323;}
	.st13{fill:#281E5C;}
	.st14{fill:#746AA3;}
	.st15{fill:#FFFFFF;stroke:#FFFFFF;stroke-width:1.5;stroke-miterlimit:10;}
</style>
<path class="st15" d="M98.6,66.7c-3.3,0-6.2-0.5-8.6-1.7c-2.4-1.2-4.7-2.8-6.9-5.1c-0.1-0.1-0.2-0.2-0.3-0.4
	c-0.1-0.1-0.1-0.4-0.1-0.6c0-0.3,0.1-0.7,0.4-1c0.3-0.3,0.6-0.5,1-0.5c0.4,0,0.7,0.2,1.1,0.6c1.7,2,3.7,3.5,6,4.5
	c2.3,1,4.7,1.5,7.2,1.5c2.2,0,4.1-0.4,5.8-1.1c1.7-0.7,3.1-1.7,4-3c1-1.3,1.5-2.8,1.5-4.6c0-2.2-0.6-3.9-1.8-5.3
	c-1.2-1.3-2.6-2.4-4.5-3.3c-1.8-0.9-3.7-1.6-5.7-2.4c-1.6-0.6-3.1-1.2-4.7-1.9c-1.5-0.6-2.9-1.4-4.2-2.3s-2.2-2.1-3-3.5
	c-0.7-1.4-1.1-3.1-1.1-5.2c0-2.1,0.6-4,1.7-5.7c1.1-1.7,2.8-3,4.9-4c2.1-1,4.6-1.5,7.5-1.5c2.4,0,4.8,0.4,7.1,1.3
	c2.3,0.9,4.1,2.2,5.5,3.9c0.4,0.6,0.6,1,0.6,1.3c0,0.3-0.2,0.6-0.5,0.9c-0.3,0.3-0.7,0.4-1.1,0.4c-0.3,0-0.6-0.1-0.8-0.4
	c-0.8-1-1.7-1.9-2.8-2.7c-1.1-0.7-2.3-1.3-3.7-1.7c-1.4-0.4-2.8-0.6-4.4-0.6c-2.1,0-4,0.3-5.7,1c-1.7,0.7-3.1,1.7-4.1,2.9
	c-1,1.3-1.5,2.8-1.5,4.7c0,2,0.6,3.6,1.7,4.8c1.1,1.3,2.6,2.3,4.3,3.1c1.8,0.8,3.6,1.6,5.4,2.3c1.6,0.6,3.2,1.2,4.8,1.8
	c1.6,0.7,3.1,1.5,4.4,2.5c1.3,1,2.3,2.2,3.1,3.7c0.8,1.5,1.2,3.4,1.2,5.6c0,2-0.6,3.8-1.7,5.5c-1.1,1.7-2.7,3-4.8,4
	C103.9,66.2,101.4,66.7,98.6,66.7z"/>
<path class="st15" d="M123.5,21.2c0.4,0,0.7,0.1,1,0.4c0.3,0.3,0.4,0.6,0.4,1v42.2c0,0.4-0.2,0.7-0.4,1c-0.3,0.3-0.6,0.4-0.9,0.4
	c-0.4,0-0.8-0.1-1-0.4c-0.2-0.3-0.4-0.6-0.4-1V22.5c0-0.4,0.1-0.7,0.4-1S123.1,21.2,123.5,21.2z M123.1,41.7h31.1l-0.1,2.6h-31.4
	L123.1,41.7z M154.2,21.2c0.4,0,0.7,0.1,1,0.4c0.3,0.3,0.4,0.6,0.4,1v42.2c0,0.4-0.2,0.7-0.4,1c-0.3,0.3-0.6,0.4-0.9,0.4
	c-0.4,0-0.8-0.1-1-0.4c-0.2-0.3-0.4-0.6-0.4-1V22.5c0-0.4,0.1-0.7,0.4-1S153.8,21.2,154.2,21.2z"/>
<path class="st15" d="M208,43.6c0,3.4-0.5,6.5-1.6,9.4c-1,2.8-2.5,5.3-4.5,7.3c-1.9,2.1-4.2,3.6-6.8,4.7c-2.6,1.1-5.5,1.7-8.6,1.7
	c-3.1,0-6-0.6-8.6-1.7c-2.6-1.1-4.9-2.7-6.8-4.7c-1.9-2.1-3.4-4.5-4.5-7.3c-1-2.8-1.6-5.9-1.6-9.4c0-3.4,0.5-6.5,1.6-9.4
	c1-2.8,2.5-5.3,4.5-7.3c1.9-2.1,4.2-3.6,6.8-4.8c2.6-1.1,5.5-1.7,8.6-1.7c3.1,0,6,0.6,8.6,1.7c2.6,1.1,4.9,2.7,6.8,4.8
	s3.4,4.5,4.5,7.3C207.5,37.1,208,40.2,208,43.6z M205.3,43.6c0-4.1-0.8-7.7-2.4-10.8c-1.6-3.1-3.8-5.5-6.6-7.2
	c-2.8-1.7-6-2.6-9.7-2.6c-3.6,0-6.9,0.9-9.7,2.6c-2.8,1.7-5,4.1-6.6,7.2s-2.4,6.7-2.4,10.8c0,4.1,0.8,7.7,2.4,10.8
	c1.6,3.1,3.8,5.5,6.6,7.2c2.8,1.7,6.1,2.6,9.7,2.6c3.7,0,6.9-0.9,9.7-2.6c2.8-1.7,5-4.1,6.6-7.2C204.5,51.3,205.3,47.7,205.3,43.6z"
	/>
<path class="st15" d="M218.8,21.2c0.2,0,0.4,0,0.6,0.1c0.2,0.1,0.4,0.2,0.6,0.4l18.4,27.4h-1.3l18.4-27.4c0.3-0.5,0.7-0.7,1.2-0.6
	c0.3,0,0.6,0.2,0.8,0.4c0.2,0.2,0.3,0.5,0.3,0.9v42.4c0,0.3-0.1,0.6-0.4,0.9c-0.3,0.3-0.6,0.4-0.9,0.4c-0.4,0-0.7-0.1-1-0.4
	c-0.3-0.3-0.4-0.6-0.4-0.9V25.3h0.7l-17.3,26.1c-0.1,0.2-0.2,0.3-0.4,0.4s-0.3,0.1-0.5,0.1c-0.2,0-0.4,0-0.6-0.1
	c-0.2-0.1-0.3-0.2-0.4-0.4l-17.7-26.6h1v40c0,0.3-0.1,0.6-0.4,0.9c-0.3,0.3-0.6,0.4-0.9,0.4c-0.4,0-0.7-0.1-0.9-0.4
	c-0.2-0.3-0.4-0.6-0.4-0.9V22.4c0-0.3,0.1-0.6,0.3-0.9S218.5,21.2,218.8,21.2z"/>
<path class="st15" d="M285.4,24.4l-16.2,40.8c-0.1,0.3-0.2,0.5-0.4,0.6c-0.2,0.2-0.4,0.2-0.7,0.2c-0.4,0-0.7-0.1-1-0.3
	c-0.2-0.2-0.3-0.5-0.4-0.8c0-0.2,0-0.4,0.1-0.6L284,21.9c0.1-0.3,0.3-0.6,0.5-0.7c0.2-0.1,0.4-0.2,0.7-0.2c0.3,0,0.6,0.1,0.8,0.2
	c0.2,0.2,0.4,0.4,0.4,0.6l17.3,42.5c0,0.1,0.1,0.3,0.1,0.5c0,0.4-0.1,0.7-0.4,0.9c-0.3,0.2-0.6,0.3-1,0.3c-0.3,0-0.6-0.1-0.8-0.2
	c-0.2-0.1-0.4-0.4-0.5-0.6l-16.8-41.3L285.4,24.4z M273.5,52.2l0.9-2.6h20.8l0.6,2.6H273.5z"/>
<path class="st15" d="M345,21.2c0.4,0,0.7,0.1,0.9,0.4c0.2,0.2,0.3,0.5,0.3,0.9v42.3c0,0.5-0.1,0.8-0.4,1.1
	c-0.3,0.2-0.6,0.4-0.9,0.4c-0.2,0-0.4,0-0.5-0.1c-0.2-0.1-0.4-0.2-0.5-0.4L314,24.9l0.9-0.4V65c0,0.3-0.1,0.6-0.4,0.8
	c-0.2,0.2-0.5,0.3-0.9,0.3c-0.4,0-0.7-0.1-0.9-0.3c-0.2-0.2-0.3-0.5-0.3-0.8V22.4c0-0.5,0.1-0.8,0.4-1c0.3-0.2,0.5-0.3,0.8-0.3
	c0.2,0,0.3,0,0.5,0.1c0.2,0.1,0.3,0.2,0.5,0.4L344.3,62l-0.5,1.3v-41c0-0.3,0.1-0.6,0.4-0.9C344.4,21.3,344.7,21.2,345,21.2z"/>
<polygon class="st8" points="4.7,50.7 40.9,87.3 66.1,50.7 51.5,28.1 36.4,38 54.4,50.7 36.6,66.7 17.2,50.5 "/>
<polygon class="st12" points="36.4,4.5 4.7,50.7 17.2,50.5 51.5,28.1 "/>
</svg>
