<svg width="100" height="26" viewBox="0 0 100 26" fill="none" xmlns="http://www.w3.org/2000/svg">
<path d="M27.9239 18.8911C26.9893 18.8911 26.168 18.7495 25.4883 18.4096C24.8086 18.0697 24.1572 17.6166 23.5342 16.9651C23.5059 16.9368 23.4775 16.9085 23.4492 16.8518C23.4209 16.8235 23.4209 16.7386 23.4209 16.6819C23.4209 16.5969 23.4492 16.4837 23.5342 16.3987C23.6191 16.3137 23.7041 16.2571 23.8174 16.2571C23.9307 16.2571 24.0156 16.3137 24.1289 16.427C24.6104 16.9935 25.1768 17.4183 25.8281 17.7015C26.4795 17.9847 27.1592 18.1264 27.8672 18.1264C28.4903 18.1264 29.0284 18.0131 29.5098 17.8148C29.9913 17.6166 30.3878 17.3333 30.6426 16.9651C30.9259 16.5969 31.0675 16.1721 31.0675 15.6623C31.0675 15.0392 30.8975 14.5577 30.5577 14.1612C30.2178 13.793 29.8214 13.4815 29.2833 13.2266C28.7735 12.9717 28.2354 12.7734 27.669 12.5468C27.2159 12.3769 26.791 12.207 26.3379 12.0087C25.9131 11.8388 25.5166 11.6122 25.1485 11.3573C24.7803 11.1024 24.5254 10.7625 24.2988 10.366C24.1006 9.9695 23.9873 9.48801 23.9873 8.89324C23.9873 8.29847 24.1572 7.76035 24.4688 7.27886C24.7803 6.79738 25.2617 6.42919 25.8565 6.14597C26.4512 5.86274 27.1592 5.72113 27.9805 5.72113C28.6602 5.72113 29.3399 5.83442 29.9913 6.08932C30.6426 6.34422 31.1524 6.71242 31.5489 7.1939C31.6622 7.36383 31.7188 7.47712 31.7188 7.56209C31.7188 7.64706 31.6622 7.73202 31.5772 7.81699C31.4923 7.90196 31.379 7.93028 31.2657 7.93028C31.1807 7.93028 31.0958 7.90196 31.0391 7.81699C30.8126 7.53377 30.5577 7.27886 30.2462 7.05228C29.9346 6.85403 29.5948 6.68409 29.1983 6.5708C28.8018 6.45751 28.4053 6.40087 27.9522 6.40087C27.3575 6.40087 26.8194 6.48584 26.3379 6.68409C25.8565 6.88235 25.46 7.16557 25.1768 7.50544C24.8936 7.87364 24.752 8.29847 24.752 8.8366C24.752 9.40305 24.9219 9.85621 25.2334 10.1961C25.5449 10.5643 25.9698 10.8475 26.4512 11.0741C26.961 11.3007 27.4707 11.5272 27.9805 11.7255C28.4336 11.8954 28.8868 12.0654 29.3399 12.2353C29.793 12.4335 30.2178 12.6601 30.586 12.9434C30.9542 13.2266 31.2374 13.5664 31.4639 13.9913C31.6905 14.4161 31.8038 14.9542 31.8038 15.5773C31.8038 16.1438 31.6339 16.6536 31.3223 17.1351C31.0108 17.6166 30.5577 17.9847 29.963 18.268C29.4249 18.7495 28.7168 18.8911 27.9239 18.8911Z" fill="white" stroke="white" stroke-width="1.5" stroke-miterlimit="10"/>
<path d="M34.9761 6.00436C35.0894 6.00436 35.1743 6.03268 35.2593 6.11765C35.3442 6.20261 35.3726 6.28758 35.3726 6.40087V18.3529C35.3726 18.4662 35.3159 18.5512 35.2593 18.6362C35.1743 18.7211 35.0894 18.7495 35.0044 18.7495C34.8911 18.7495 34.7778 18.7211 34.7212 18.6362C34.6646 18.5512 34.6079 18.4662 34.6079 18.3529V6.37255C34.6079 6.25926 34.6362 6.17429 34.7212 6.08932C34.8062 6.00436 34.8628 6.00436 34.9761 6.00436ZM34.8628 11.8105H43.6705L43.6422 12.5468H34.7495L34.8628 11.8105ZM43.6705 6.00436C43.7838 6.00436 43.8687 6.03268 43.9537 6.11765C44.0387 6.20261 44.067 6.28758 44.067 6.40087V18.3529C44.067 18.4662 44.0103 18.5512 43.9537 18.6362C43.8687 18.7211 43.7838 18.7495 43.6988 18.7495C43.5855 18.7495 43.4723 18.7211 43.4156 18.6362C43.359 18.5512 43.3023 18.4662 43.3023 18.3529V6.37255C43.3023 6.25926 43.3307 6.17429 43.4156 6.08932C43.5006 6.00436 43.5572 6.00436 43.6705 6.00436Z" fill="white" stroke="white" stroke-width="1.5" stroke-miterlimit="10"/>
<path d="M58.9069 12.3486C58.9069 13.3115 58.7653 14.1895 58.4537 15.0109C58.1705 15.8039 57.7457 16.512 57.1793 17.0784C56.6412 17.6732 55.9898 18.098 55.2535 18.4096C54.5172 18.7211 53.6959 18.8911 52.8179 18.8911C51.94 18.8911 51.1187 18.7211 50.3824 18.4096C49.646 18.098 48.9947 17.6449 48.4566 17.0784C47.9185 16.4837 47.4937 15.8039 47.1821 15.0109C46.8989 14.2179 46.729 13.3399 46.729 12.3486C46.729 11.3856 46.8706 10.5076 47.1821 9.68628C47.4653 8.89325 47.8901 8.18519 48.4566 7.61874C48.9947 7.02397 49.646 6.59913 50.3824 6.25926C51.1187 5.94771 51.94 5.77778 52.8179 5.77778C53.6959 5.77778 54.5172 5.94771 55.2535 6.25926C55.9898 6.57081 56.6412 7.02397 57.1793 7.61874C57.7174 8.21351 58.1422 8.89325 58.4537 9.68628C58.7653 10.5076 58.9069 11.3856 58.9069 12.3486ZM58.1422 12.3486C58.1422 11.1874 57.9156 10.1678 57.4625 9.28976C57.0094 8.41177 56.3863 7.73203 55.5933 7.25055C54.8004 6.76906 53.8941 6.51416 52.8463 6.51416C51.8267 6.51416 50.8921 6.76906 50.0992 7.25055C49.3062 7.73203 48.6831 8.41177 48.23 9.28976C47.7769 10.1678 47.5503 11.1874 47.5503 12.3486C47.5503 13.5098 47.7769 14.5294 48.23 15.4074C48.6831 16.2854 49.3062 16.9651 50.0992 17.4466C50.8921 17.9281 51.8267 18.183 52.8463 18.183C53.8941 18.183 54.8004 17.9281 55.5933 17.4466C56.3863 16.9651 57.0094 16.2854 57.4625 15.4074C57.9156 14.5294 58.1422 13.5098 58.1422 12.3486Z" fill="white" stroke="white" stroke-width="1.5" stroke-miterlimit="10"/>
<path d="M61.9653 6.00436C62.022 6.00436 62.0786 6.00436 62.1353 6.03268C62.1919 6.061 62.2485 6.08933 62.3052 6.14597L67.2896 13.9495L72.359 6.14597C72.444 6.00436 72.5572 5.94771 72.6988 5.97604C72.7838 5.97604 72.8688 6.03268 72.9254 6.08933C72.982 6.14597 73.0104 6.23094 73.0104 6.34423V18.3529C73.0104 18.4379 72.982 18.5229 72.8971 18.6078C72.8121 18.6928 72.7272 18.7211 72.6422 18.7211C72.5289 18.7211 72.444 18.6928 72.359 18.6078C72.274 18.5229 72.2457 18.4379 72.2457 18.3529V7.16558H72.444L67.5445 14.5577C67.5162 14.6144 67.4879 14.6427 67.4312 14.671C67.3746 14.6993 67.3462 14.6993 67.2896 14.6993C67.233 14.6993 67.1763 14.6993 67.1197 14.671C67.063 14.6427 67.0347 14.6144 67.0064 14.5577L61.9937 7.02397H62.2769V18.3529C62.2769 18.4379 62.2485 18.5229 62.1636 18.6078C62.0786 18.6928 61.9937 18.7211 61.9087 18.7211C61.7954 18.7211 61.7104 18.6928 61.6538 18.6078C61.5972 18.5229 61.5405 18.4379 61.5405 18.3529V6.34423C61.5405 6.25926 61.5688 6.17429 61.6255 6.08933C61.6821 6.00436 61.8804 6.00436 61.9653 6.00436Z" fill="white" stroke="white" stroke-width="1.5" stroke-miterlimit="10"/>
<path d="M80.8272 6.91067L76.2393 18.4662C76.2109 18.5512 76.1826 18.6078 76.126 18.6362C76.0693 18.6928 76.0127 18.6928 75.9277 18.6928C75.8145 18.6928 75.7295 18.6645 75.6445 18.6078C75.5879 18.5512 75.5596 18.4662 75.5313 18.3813C75.5313 18.3246 75.5312 18.268 75.5596 18.2113L80.4307 6.20261C80.459 6.11764 80.5157 6.03268 80.5723 6.00435C80.629 5.97603 80.6856 5.94771 80.7706 5.94771C80.8555 5.94771 80.9405 5.97603 80.9971 6.00435C81.0538 6.061 81.1104 6.11764 81.1104 6.17429L86.0099 18.2113C86.0099 18.2396 86.0382 18.2963 86.0382 18.3529C86.0382 18.4662 86.0099 18.5512 85.9249 18.6078C85.8399 18.6645 85.755 18.6928 85.6417 18.6928C85.5567 18.6928 85.4718 18.6645 85.4151 18.6362C85.3585 18.6078 85.3019 18.5229 85.2735 18.4662L80.5157 6.76906L80.8272 6.91067ZM77.457 14.7843L77.7119 14.0479H83.6026L83.7725 14.7843H77.457Z" fill="white" stroke="white" stroke-width="1.5" stroke-miterlimit="10"/>
<path d="M97.7061 6.00436C97.8194 6.00436 97.9044 6.03268 97.961 6.11765C98.0177 6.17429 98.046 6.25926 98.046 6.37255V18.3529C98.046 18.4946 98.0177 18.5795 97.9327 18.6645C97.8477 18.7211 97.7628 18.7778 97.6778 18.7778C97.6212 18.7778 97.5645 18.7778 97.5362 18.7495C97.4796 18.7211 97.4229 18.6928 97.3946 18.6362L88.9268 7.05229L89.1816 6.939V18.4096C89.1816 18.4946 89.1533 18.5795 89.0684 18.6362C89.0117 18.6928 88.9268 18.7211 88.8135 18.7211C88.7002 18.7211 88.6152 18.6928 88.5586 18.6362C88.502 18.5795 88.4736 18.4946 88.4736 18.4096V6.34423C88.4736 6.20262 88.502 6.11765 88.5869 6.061C88.6719 6.00436 88.7285 5.97604 88.8135 5.97604C88.8701 5.97604 88.8984 5.97604 88.9551 6.00436C89.0117 6.03268 89.04 6.061 89.0967 6.11765L97.3663 17.8789L97.5001 17.5L97.3663 6.31591C97.3663 6.23094 97.3946 6.14597 97.4796 6.061C97.5362 6.03268 97.6212 6.00436 97.7061 6.00436Z" fill="white" stroke="white" stroke-width="1.5" stroke-miterlimit="10"/>
<path d="M1.33105 14.3595L11.5831 24.7255L18.7199 14.3595L14.5851 7.9586L10.3087 10.7625L15.4064 14.3595L10.3653 18.8911L4.87113 14.3028L1.33105 14.3595Z" fill="white"/>
<path d="M10.3087 1.27451L1.33105 14.3595L4.87113 14.3028L14.5851 7.95861L10.3087 1.27451Z" fill="#EC7323"/>
</svg>
